<svg xmlns="http://www.w3.org/2000/svg" viewBox="0 0 811.45 997.39"><defs><style>.cls-1,.cls-2{fill:#73116f;}.cls-1{fill-rule:evenodd;}</style></defs><g id="图层_2" data-name="图层 2"><g id="图层_1-2" data-name="图层 1"><path class="cls-1" d="M127,0c36.11,21.05,83.6,35.88,140.53,36.39C325.84,37.06,375.34,25.66,411,3c36,22.52,86,34.26,143.8,33.35,55.87-.74,105-15.34,140.57-36.1.66,83.81-1.3,163.74-1.3,247.16,0,82.86,4.47,168.9-16.77,232.26-10.3,31-25.89,57.12-43.41,81.56a295.63,295.63,0,0,1-61.72,62.89c-23.93,18.23-51.54,31.14-79.66,45.3-24.07,12.16-48.26,24.65-71.75,37.33-3.27,1.82-7.08,3-9.46,6.16-12.63-8.52-26.42-15.36-40.05-22.52s-27.63-14.25-41.4-21.3c-14.23-7.26-28.45-13.56-41.92-20.64a257.83,257.83,0,0,1-37.73-24.71C203,587.72,166.55,541,145,478.86c-11.08-32.09-14.23-68.8-16.15-108.58-1.8-39.21-.83-80.94-.83-121.63,0-82.83-1.2-164.3-1.2-247.86C126.74.45,126.74,0,127,0ZM396.73,29.78c-49.61,21.9-127.8,28.27-191.2,15.49A240,240,0,0,1,152,28.64c-2.09-1-4.39-2.71-7-2.48-.73,77.11,1.22,157.08,1.22,231.36,0,38.73-1.94,78.16-.33,114.93s5.81,71.36,15.86,101.26a289.2,289.2,0,0,0,39.54,77.45c24.6,34.41,54.38,63,92.06,83.38,12.68,6.76,26,12.8,39.6,19.06,26.39,12.35,52.81,25.27,79,38.09,26.17-13,52.73-25.39,78.8-38.09,13.42-6.49,26.89-12,39.48-18.82,25-13.33,46.36-31.22,65.32-51.3A289.43,289.43,0,0,0,661,473.38c19.63-60.63,15.49-137.49,15.49-214.95,0-78.19.23-155.18.77-232.23a18.33,18.33,0,0,0-6.91,2.48,253.82,253.82,0,0,1-53.47,17c-46.1,9-102.63,7.61-146-1.94a245.67,245.67,0,0,1-59.68-21.26C407.71,25.33,402.35,27.3,396.73,29.78Z"/><path class="cls-1" d="M417.45,54.1c24.44,2.66,42.78,15.49,53.84,33.5,1.45,2.39,3.87,6.2,3.66,8.08a3.77,3.77,0,0,1-3.68,3.43c-2.44-.12-3.12-3.43-4.9-6.43-9.32-16.31-24.4-27.54-45.93-31.32a102.51,102.51,0,0,0,5.19,14.92c1.8,5.07,3.71,10.3,5.48,15.27.83.89-.12,2.1,0,3.33,3.87-.29,8.23-.11,7.61,4.23-.88,5.59-17.55,1.35-23.76,2.76-.68,4.28-.1,10-.29,14.78,3.38,1.94,19.53-1.69,22.79.68a4.49,4.49,0,0,1,1.26,3.62c-.91,6.08-17.28,1.12-23.76,2.69-1,5.09,1.41,12.18-3.66,12.53s-3.49-6.43-3.59-12.24c-6.1-2.21-22.81,3.22-24.07-2.65-1.66-8.35,17.92-2.33,23.72-4.63a62,62,0,0,0,0-14.54c-5.4-1.94-22.57,2.8-23.72-2.71-.87-4.3,3.41-5,7.38-4.52.85-.79-.46-1.82,0-3,3.87-9.83,7.17-20.37,11.27-30.13-26.06,3.55-42.6,19.37-50.75,41.58,2.79-.12,7.1-1.74,12.72-2.71,6-1,18.13-3.78,14.56,4.57-4.92,1.59-10.49,1.41-15.49,2.48a88,88,0,0,0-13.65,4.24,16.77,16.77,0,0,0-1.22,5.81c4.38-.68,9-2.6,14.87-3.66,4.22-.76,16.81-3.88,15.49,3-.56,3-4.18,2.61-7,2.77-8.13.5-18.34,3.17-23.45,6a14.21,14.21,0,0,0,.33,4.86,135.93,135.93,0,0,1,14.89-3.41c3.87-.5,13.4-3.16,14.33,1.26,1.3,6.31-9.84,4.51-15.18,5.46a78.32,78.32,0,0,0-12.8,3.87c1.3,3,1.36,6.84-1.57,7.34-6.1,1.36-6.78-13-7-18.78a74.24,74.24,0,0,1,2.83-22.87c8-27.5,29.43-45.1,60.78-49.79,2.27-3.33,2.27-10,6.66-9.52C415.56,44.67,415.11,51.16,417.45,54.1Zm-2.07,14.27c-1-2.59-2-8.36-5-7.84-5.15,10.59-8.57,22.89-13.09,34.35,2.6.12,7.5-.11,10,0-1.93-10.22,9.69-10.82,7.32,0h10.4c-2.94-7.74-6.66-18-9.7-26.51Z"/><path class="cls-1" d="M267.94,80.5c1.53,1.18-.52,3,.29,4.22,4.4-.83,9.86,2.53,10.32,4.92.62,3-2.75,6.31-1.93,10.3,7.43,4.76,9.25,15.14,17.7,19A45.64,45.64,0,0,1,298.85,146c-1.26,7.28-8.48,8.07-7,17.6.7,4.12,3.17,12.41,6.1,13.71,1.93.83,4.51-.18,6.43,1.18,1.51,1.93.79,5.92-.35,7.74-5.81,1.07-8,7.27-15.22,4.84-2.71-1-7.46-4.12-8.81-6.42-.89-1.48-.78-3.57-1.51-5.14-1.53-3.44-4.24-5.53-5.81-7.95-4.4,1.35-17.93-1-15.8,6.15,1,3.14,11.73,1.57,8.25,9.69-1.24,2.82-10.52,6.77-14,7.57a20.64,20.64,0,0,1-4.3.27c-1.13-.1-2.13-1.18-3.6-1.53-2.93-.56-6.88.75-10,0-1.93-.33-7.22-4.11-9.15-5.81a21.52,21.52,0,0,1-4.17-5.46c-1.39-3.31-.5-6.1-4.05-7.61a46.79,46.79,0,0,0-5.42-.91c-3.27-.8-6.76-3.45-9.43-1.47-3.33,3.66,1.94,5.24,3.6,8.46s.64,5.3,1,9.68a11,11,0,0,1-6.08,4.57c-3.68.68-8.63-2.09-13.77-3.33-3.33-.83-8.34-.83-9-4.22-.44-2.15,1.69-3.39,2.09-5.19.62-2.44-.73-4.36.89-6.33-2.3-3.55-1.29-9.07-1.51-15.49-.25-7-.11-11.72,1.51-16.75.62-1.81.72-3.88,1.3-4.9.91-2.13,7.16-7.17,9.68-8.47a42.29,42.29,0,0,1,25.49-4.29c2.13.25,4,2,6.08,2.44,3.87.67,9-.41,13.09,0a9,9,0,0,0,3.06-2.72c.32-6.6-3.39-9.19-5.19-13.71C234,105.57,232,98,234.37,91.65a40.17,40.17,0,0,1,5.2-8.64,15.69,15.69,0,0,1,6.67-4.55c3.48-.62,9.35,1.34,12.74,2.46C260.93,79.49,265.23,79.49,267.94,80.5ZM250,94.25c3,.75,4.19-2.93,5.54-4.9-.81-1.46-.37-4.23-2.5-4.28.22,4.33-1.87,6.31-3.11,9.18ZM238.7,93c.33.46,1.24.4,2.15.4a43.82,43.82,0,0,1,2-5.8C240.23,86.75,238.47,90.82,238.7,93Zm19.12,1c-2.77,2.13-8.06,4.28-6.38,8.79.24,0,.57,0,.57.22,3.5-1,4.47-4.73,7-6.93,2.13-1.82,6.1-3,5.81-7.11C261.26,87.66,260,92.12,257.82,94Zm0,14.2c0,.11.63.62.63.79,1.15.74,1.94-.68,3.26-.79,2.5-.23,4.3,1.2,5.81,1.2a2.65,2.65,0,0,0-.43-3.73,2.62,2.62,0,0,0-1.08-.51C264.07,108.44,256.81,102.48,257.82,108.19Zm19.36-3c-1.55-.18-2.19,1.59-2.07,2.71.21,2.07,3.87,4.39,6.08,4.28-.62-1.3-2.44-6.76-4-7Zm-26.45,4.57a7.73,7.73,0,0,0-4.49,6c1.93.85,2.42-1.94,4.16-2.32,2.09,1.14,2,4.33,4.3,5.13.56.91,3.25-.33,3.39.91,0,1.63-2.62,1.63-4.3,2.48s-5.13,3.56-7.9,5.25c-4.86,2.76-11.18,6.35-4,9.68.81-.64,0-2.15.37-2.89.56-1.47,6.54-5.71,7.22-5.81,1.22-.23,2.65.68,3.72.51,3.15-.41,3.87-3.45,6.64-4.63a23.2,23.2,0,0,0,5.81.68c2.75,1,1.28,6.21,4.51,6.75,1.45-1.93.31-4.84,2.15-6.75-.31-1.94-2.09-2.5-1.94-4.81.51-1.18,1.94-1.45,3-1.93,2.89,2.09,2.31,7.61,5.13,9.68,2.48-1.53,3.1-7,1.59-9.68-1.35-2.19-5.52-3-6.43-4.73a58.29,58.29,0,0,0-18,3.49c-1.95-1.86-2.86-5-5-7Zm35,19.52c2.24-1.3,1-6.05-1.49-6.16C283.22,124.84,283.22,129.18,285.76,129.24Zm-28.62,2.65c.68,1.61,3.23,1.3,3.68,3-.91,3.37,1.93,5.09,2.48,8-1.81,2.59-4.63.23-5.48-1.53a2.26,2.26,0,0,0-2.2,2.33s0,.06,0,.09c7,.46,3.15,8.58-1.18,10-1.3.56-3.12,0-4.57.35s-3.24,2.36-5.17,3c-2.87,1-5.52.17-7.27,1.59-.89,3.54-.44,7.94,2.15,7.88s2.48-5.25,5.12-6.1c3.87.64,3.38-2.36,5.5-3,1.1-.47,2.42.35,3.87,0,4.22-1.18,5.34-6.66,8-9.82,6.87.85,8.54-5.13,8.77-10-3.87.73-8.44,1.24-9.14-2.09-.33-2.42,1.94-3.49,2.5-5.81C262.4,126.68,257.6,129.12,257.14,131.89Zm-56.45,1c-1.35,0-1.08-1.65-2.71-1.26.21,2.32-1.94,2.32-2.48,3.6.33,1.65,2.48,1.65,3,3.1,4.8,0,6.08-3.58,10.28-4.28-.81-5.64-5.09-3-8.13-1.16Zm15-2.15a4.24,4.24,0,0,0,1.82,5.46,2.9,2.9,0,0,0-1.82-5.46Zm15.8,12.41c1.3-1.53.66-5.42-1.59-5.42-1,1.24-1.43,6.08,1.51,5.42Zm-49,3.16c1.94,1.06,6.45,1.39,7.92-.35a9.42,9.42,0,0,1-.89-5.81c-3.16,1.24-6.08,2.81-7.11,6.16Zm50.46,1.39c2.46.45,7.44,1.09,8-1.39-1.32-3.16-8.56-3-8.07,1.39Zm-34.31,5.81c-1.36,0-.79-1.65-2.15-1.53-1.8,0-1.8,1.94-3.39,2.15a3.81,3.81,0,0,0-2.13-.62c-.68.62-1.68,1-1.45,2.36a2.85,2.85,0,0,1,3.31.33c.5-.56.35-1.74,1.53-1.74-.23,4.51-3,9.2-8.19,9.68a8.48,8.48,0,0,1-3.68,4.92c-1.22,5.58.35,10.69,5.81,10.69a15.3,15.3,0,0,0,.33-4.05,6.35,6.35,0,0,1-2.42-6.64,4.81,4.81,0,0,1,3.6-1.26,25,25,0,0,0,5.81-7.9c-1-3.37,2.48-5.81,3.87-3,0,.89-1,2.46.56,2.4,1.24-.33,0-1.24,0-2.13,1.51-1.94,4.84-2.09,5.81-4.57-2.34-3.64-4.82-.14-7.3.89ZM184,159.06A6.68,6.68,0,0,0,185.2,152c-3.14,0-3.7,5.89-1.32,7.13Zm39,.77c.21,1.14,2.56.58,3.33.35a1.23,1.23,0,0,1,.35-.91,4.58,4.58,0,0,0-2.21-1.51c.29,1.53-1.66.81-1.55,2.09Zm25.85,3.68c-1.2.56-2.42,1-3,2.15-.44,1.94.81,5.69-1,6.35-2.92-2.07-5.11-.48-7.05,1.59-1.45-.29-1.93-1.69-4.16-1.24-.23,1-1.14,4.74.56,4.86,1.71-.35-.89-3.16,1.24-3.16a16.73,16.73,0,0,0,2.36,3.51c-.09,2.25-.89,6.82.35,8.52,3.6-1.08.16-9.22,4.63-9.55,1.47.85,1.07,3.6,1.18,5.81,1.3.56,2.87,2.54,5.13,2.75s7-.56,7.9-2.42c-1.56-1.24-4.16-1.28-5.42-2.77-.5-.33-.33-1.57-.33-2.34-3-1.94-4.41-7.13-3-11.62.45-1.47,3.51-3.56.89-5.19-.46.52-.31,1.9-.34,2.77Zm-56.58,17.64V182c2.71-.27,3.33,3,5.52,2.21a4.9,4.9,0,0,0-5.6-3.06Z"/><path class="cls-1" d="M627.24,172.34c-2.94-1.94-6.77.79-9.81,1.47-3.66.91-6.94.85-8.47,4-.67,1.45-.32,3.1-.89,4.51-2.49,5.93-8.24,7.44-12.76,11.21-3,.59-6.64-.61-10.34,0-2.46.47-3.64,2.06-7.59,1.26-5.65-1-13.36-4.74-14.6-7.9-2.44-6.1,4.22-7.1,8.23-8.81,1.07-6.1-3.33-5.13-8.58-5.81-2.48-.35-5.36-1.29-6.72-.95s-5.05,5.08-6.31,8c-.66,1.45-.56,3.49-1.24,4.84-1.8,3.61-8.81,7.5-12.74,7.23-5-.18-5.81-4.63-11.62-5.35-1.32-2.55-1.76-6.18,0-7.74,1.4-1.18,5.25-.57,7-1.94,2.09-1.47,6.82-13.55,5.19-19.36-1.08-3.72-5.92-7-6.72-10a38.31,38.31,0,0,1-.33-5.24c0-7.32.22-17.32,4.61-22.74,1.82-2.3,5.09-3.48,7.36-5.81,4.05-4.39,4.61-11.5,10.57-13a53.11,53.11,0,0,0-2.13-10.73c2.27-2.77,4.65-5.54,10.32-4.92,1-1.33-1.18-2.92.29-4.22,2.42-.89,6.88-1.12,8.47.33a45,45,0,0,1,10.41-2.46c6.28-1,9.82,5.35,12.13,9.53a19.08,19.08,0,0,1,3.68,9.35,77.05,77.05,0,0,1,0,7.75,57.56,57.56,0,0,1,0,7c-1.07,6-9.69,12.74-2.08,16.69,4-.5,8.7.78,13,0,2.26-.4,4.39-2.19,5.81-2.44A50.76,50.76,0,0,1,625,126c8.9,1.18,15.9,7,21.53,12.18.12,3.57,2.77,6.63,3.39,10.58a91,91,0,0,1-.29,22.55c-.51,3.16-1.63,6.16-.62,10.6.46,1.93,2.26,3.23,2.09,4.92-.27,4-5.36,4-9.68,5.18-7.75,2.08-15.78,5.81-19.17-1.8.15-4.51-.51-6.77,1.24-9.81S629.84,176.56,627.24,172.34Zm-49-78.09c.12-1.94-2.13-2.35-2.69-4.26s.72-3.88-1-5.27C570.84,87.66,574.05,95,578.27,94.25Zm8.81-.9a2.62,2.62,0,0,0,2.37-.67,5.83,5.83,0,0,0-3.88-5.43C585.07,89,587,91.11,587.08,93.35Zm-24-4.39c.22,5.13,4.57,5.42,7.34,8.29,2.15,2.32,2.71,5.36,5.42,5.81,3.08-3.72-2.82-8-6.06-9.36C568.36,91.55,566.67,88,563.05,89ZM553,107.3c0-.74-1.12-2.33-2.34-2.15s-3.74,6.25-3.74,7C549.17,112.31,553.12,109.25,553,107.3Zm12.76-.91c-1.41.17-3.06-1.48-4.16-1.24s-2.94,3.87-.7,4.24c1.36-.85,6.34-1.94,8.23,0,1.94-1.2,1-3.27-.66-4.24C567.12,105.09,567.29,106.15,565.76,106.39Zm12,3.33c-3.06,1.35-3.16,5.52-6.1,6.93a48.36,48.36,0,0,0-17.74-3.49c-.89,1.94-5.81,2.93-6.64,5.81a10.78,10.78,0,0,0,1.49,8.68c3.58-1.57,3.87-14.33,8.89-7.28-.45,1.8-1.8,2.77-2.19,4.63,1.94,1.37.89,4.29,1.94,6.42,3.73,0,2.07-5.24,4.57-6.42,1.93-.45,4.45-.45,6.37-1,2.92,2.09,5.19,6,10.26,4.12,2.71,2.77,7.75,3.88,7.4,8.7a3.87,3.87,0,0,0,3.54-3.88c-.21-2.88-6.35-5.26-9.35-7-1.76-1.07-3.16-2.54-4.86-3.39-1.94-1-4.84-.84-5.19-3,.23-1,2-.47,3.06-.51,2.24-1.08,2.24-4.51,4.63-5.54,1.57.3,2.28,3,3.87,2.33A7.72,7.72,0,0,0,577.77,109.72ZM541,127.59c2.13,3.87,4.49-1.68,3-4.51C541.5,123.19,541.27,125.58,541,127.59Zm22.77,2.15c.81,2.11,2.46,3.41,2.61,6-1.27,3.39-6.23,1.94-9.39,2.09.72,4.28,1.57,10.9,8.79,9.55,2.37,3.66,4.17,7.74,8,10,5.33-1.94,4.86,3.27,9.39,3,2.69.79,2.56,5.93,5.11,6.1,3,.23,3.16-5.25,2.21-8.23-2.61-1.07-4.92-.17-7.74-1.24-1.3-.5-2.29-2.26-3.6-2.71-2-.68-4.25.12-6.1-.68-2.6-1-4.63-5-4.63-8.17.62-1.47,3.37-.68,3.72-2.48-.12-1.14-.9-1.53-1.81-1.76-1.12,1.76-4.12,4.24-5.8,1.18,1.2-2.52,3.23-4.05,2.78-8.29.78-1.06,3-.75,3.33-2.36C570.51,128.85,565.42,126.91,563.75,129.74ZM619,133.83c3.88.85,5.62,4.22,10.38,4.43.45-1.55,2.91-1.39,3.3-3.1-.93-1.18-2.89-1.28-2.73-3.6-1.81-.39-1.36,1.47-3,1.26-2.95-2.23-6.67-3.93-7.91,1Zm-8.22,2.3a4.8,4.8,0,0,0,1.83-5.42c-3.87-.58-5.13,4.49-1.83,5.46Zm-13.33,1.53a4.11,4.11,0,0,0-.91,5.42c3,.76,3.28-5,.91-5.38Zm40,8.58c1.93,1.28,5.54.77,8,.27-.82-3.66-3.88-5.13-7-6.37a10.91,10.91,0,0,1-1,6.14Zm-50.06.54c1,1.63,5.4,1.45,7.55.89C595.76,143.12,587.65,142.93,587.45,146.78Zm34.62,6.08c1.48,1.94,4.23,2.56,5.81,4.3-.13.68-.58,1.59,0,2.13,1.94-.16.78-1.45.6-2.77,4.57-3.31,4,4.65,6,7.57,1.35,1.94,3,2.21,3.73,3.66,1.11.23,2.35.35,3.37.62,2.6,4.63-4.28,6.72-1.59,11.33,6.78.93,7.75-11.21,2.83-13.07a5.12,5.12,0,0,0-.68-2.15,9.87,9.87,0,0,1-8.26-10c1.14,2.24,2.86.5,4.86,1.41a2.85,2.85,0,0,0-2.11-2.36c-.84,0-1.28.62-2.19.62-.78-.68-1.36-1.76-2.71-2.15-1.34,0-1,1.8-2.66,1.53-2-1.65-5.24-4.3-7.06-.64Zm22.47,5.81c1.74-1.72,1.1-6.68-1.47-6.78-1.4,2.11-1,6.16,1.45,6.9Zm-42.82,1.1a4.82,4.82,0,0,0,3.31.68,1.44,1.44,0,0,1,.35-1c-1.16-.65-3.64-2.59-3.68.41Zm-21.63,6.53c-.56,3,0,5.29-.33,8.46-1.58,1.45-3.29,2.6-3,5.17-1.57,1.53-4.84,1.32-5.81,3.41,3.87,2.13,10.54,2.3,13.09-1,.39-2.09-.5-5.54,1.8-5.81,3.88.8.51,8.62,4.28,9.55,1.09-1.94.74-6.72,0-8.52,1.42-.91,1.42-3.06,3.33-3.51.24,1-.67,3.16.56,3.16,1.24-.74,1.09-3.87.35-4.86-2.53-.56-2.53,1.24-4.57,1.24-1.14-3-4.3-3.16-7.05-1.59-1-1.94-.34-3.87-.58-6.58-2.24-.85-2.92-3.1-3.71-4.69C577.38,163.32,579.3,164.94,580.09,166.3Zm50.35,18.22a14.81,14.81,0,0,0,5.42-3.06,3.76,3.76,0,0,0-5,1.8,3.63,3.63,0,0,0-.34,1.26Z"/><path class="cls-1" d="M470.94,104c1.93-.29,2.42-2.42,4.92-2.1,3.87.3,4.72,10.66,5.19,15.81.65,9-.12,33.26-9.14,25.17a9.57,9.57,0,0,1,.54-4.59c-4.28-2.52-12.84-4.43-20.35-5.17-3.88-.27-9.09.23-7.61-4.86,1.18-4.07,10.7-1.47,14.62-1a110.63,110.63,0,0,1,14.25,3.41c1-.79.44-3.12,1-4.59-3.55-2.65-15.5-5.81-23.42-6.31-3.87-.27-7.74.17-7.74-3.66,0-1.75,1.35-2.27,2.48-3.39a87.61,87.61,0,0,1,28,5.13c2.25-7.75-7.75-8.64-13.44-10a132.84,132.84,0,0,0-15.78-2.09c-2.5-1.24-2.25-6.26,1.53-6.37A80.2,80.2,0,0,1,470.94,104Z"/><path class="cls-1" d="M424.79,190.33c-6.76-8.81,14.89-7.92,17.6-12.47a35.89,35.89,0,0,0-11.21-2.77,93.94,93.94,0,0,0-12.2-1c.27,6.08,3,16.46-3.54,18.32-4.63,1.18-18.84,0-19.52-3.37-1.41-7.51,10.83-2.59,16.36-3.33,1.48-3.29.18-8.75-.91-11.62-10.88-.91-21.3,1.18-30.36,3.16,2.69,4.22,10.63,3.16,11.25,7.28,1.51,9.06-14.17-.12-16.42-1.59a65.38,65.38,0,0,1-21-18.84c-2.44-3.21-7.36-9.43-7-12.7s7.49-5.11,12.18-6.35c27.36-7.4,58.9-10.23,89.35-4A127,127,0,0,1,463,145c4,1.24,11.44,2.86,12,5.81.62,3.87-6.37,12.7-7.95,14.91A59.59,59.59,0,0,1,442.1,185.7C437,188,431.28,190.49,424.79,190.33ZM356.3,153.54a63.23,63.23,0,0,0,16.48,19.17,75.53,75.53,0,0,1,14.33-3.66c-2-1.94-4.55-3.06-7.32-5.21-2-1.51-6-3.87-5.81-6.91s7.42-5,12.2-6.12A121.81,121.81,0,0,1,436,151c4.75,1.14,12.75,2.38,12.75,6.16,0,2.13-3.61,5.23-5.52,6.64-2.6,2.15-5.54,2.36-7.23,5.21a58.5,58.5,0,0,1,14.55,3.66,47.81,47.81,0,0,0,15.82-19.17c-29-12.18-80.73-11.35-110.15,0Zm28.6,5.25c11.83,10.32,40.67,10.32,52.58,0C423.38,154.12,399,154.12,384.9,158.79Z"/><path class="cls-2" d="M209.15,369a18,18,0,0,0-.56-2.8,6.56,6.56,0,0,0-1-2.42,4,4,0,0,0-3-1.61,38.91,38.91,0,0,0-5.5-.39H166.78V359l36.06-26.64H180.09a26.3,26.3,0,0,0-5.81.46,4.58,4.58,0,0,0-2.93,1.51,6.65,6.65,0,0,0-1.23,2.95,12,12,0,0,0-.68,2.88h-2.19v-18h2.15a14,14,0,0,0,.68,2.77,8.51,8.51,0,0,0,.91,2.48,3.87,3.87,0,0,0,2.57,1.47,30.15,30.15,0,0,0,6.22.52h21.67a8.64,8.64,0,0,0,2.8-.58,5.4,5.4,0,0,0,2.25-1.29,12.17,12.17,0,0,0,1.76-3,12,12,0,0,0,.85-3.16h2.15v12.62l-33.63,24.71h21a23.11,23.11,0,0,0,5.81-.44,3.89,3.89,0,0,0,2.79-1.47,8.24,8.24,0,0,0,1.12-2.77c.35-1.36.56-2.37.68-3h2.15v18Z"/><path class="cls-2" d="M170.89,419.23,169,401.07l2.17-.23a17.26,17.26,0,0,0,1.09,3.87c.33,1,.77,1.47,1.33,1.47a1.22,1.22,0,0,0,.56-.17,1.56,1.56,0,0,0,.7-.29l9.47-4.55-1.53-15.49a34.38,34.38,0,0,0-3.87-1,26.84,26.84,0,0,0-3.08-.68c-1-.23-1.69-.23-2.25-.35h-1.33c-.86.12-1.38.74-1.77,2.15a18.55,18.55,0,0,0-.34,4.4l-2.19.23-1.69-16.6,2.21-.11a13.22,13.22,0,0,0,.56,2.05,4.57,4.57,0,0,0,1.07,1.78,6.83,6.83,0,0,0,1.93,1.82,11.12,11.12,0,0,0,2.68,1.07c5.71,1.64,12.16,3.33,19.26,5.42s13.44,3.66,19.08,5.25l.21,2.42L176.83,412a5.74,5.74,0,0,0-1.93,1.18,6.77,6.77,0,0,0-1.74,3.72,8.45,8.45,0,0,0-.18,1.94Zm16-19.36,16.42-8.35-17.66-4.86Z"/><path class="cls-2" d="M223.25,465.3a12.41,12.41,0,0,0-1-2.54,10.58,10.58,0,0,0-1.53-2.24,4.86,4.86,0,0,0-3.25-.83,29.44,29.44,0,0,0-5.52.83l-31.56,6.93-.54-2.59L209.31,431l-22.21,4.84a22.34,22.34,0,0,0-5.6,1.74,4.68,4.68,0,0,0-3.15,5.19,11.59,11.59,0,0,0,0,3l-2.13.56-3.88-17.66,2.13-.5c.25.56.7,1.41,1.32,2.65a6,6,0,0,0,1.45,2.19,3.89,3.89,0,0,0,2.89.91,27.84,27.84,0,0,0,6.08-.91l21.14-4.69a9.8,9.8,0,0,0,2.77-1.06,6.92,6.92,0,0,0,1.82-1.8,9.6,9.6,0,0,0,1.13-3.33,15.75,15.75,0,0,0,0-3.22l2.13-.44L218,430.74l-27.47,31.52,20.41-4.63a24.62,24.62,0,0,0,5.81-1.74,4,4,0,0,0,2.36-1.94,11.16,11.16,0,0,0,.52-3,13.68,13.68,0,0,0,0-3l2.17-.56L225.63,465Z"/><path class="cls-2" d="M237,491.21a18.78,18.78,0,0,0-1.32-1.76c-.56-.62-1.06-1.12-1.51-1.57a1.94,1.94,0,0,0-1.82-.62,4,4,0,0,0-1.8.62l-22.6,13a11.36,11.36,0,0,1-4.16,1.42,14,14,0,0,1-4.74,0,16.18,16.18,0,0,1-5.08-2.15,15.52,15.52,0,0,1-3.87-4.51,11.63,11.63,0,0,1-1.65-8.52,9.67,9.67,0,0,1,5.14-6.49,7.23,7.23,0,0,1,3.77-1,3.87,3.87,0,0,1,3,2,4.19,4.19,0,0,1,.47,3,3.42,3.42,0,0,1-1.77,2.44,6,6,0,0,1-1.93.67,10.48,10.48,0,0,1-1.94.12,15.54,15.54,0,0,0-1.93,0,10.48,10.48,0,0,0-1.94,0,6.17,6.17,0,0,0-.54,2.71,7.66,7.66,0,0,0,1.1,3.54,6.49,6.49,0,0,0,2.83,2.66,6.12,6.12,0,0,0,3.48.5,13.66,13.66,0,0,0,4-1.12,51.14,51.14,0,0,0,4.69-2.33l20.23-11.61a7.15,7.15,0,0,0,1.36-1.15,3.43,3.43,0,0,0,.46-1.93,12.8,12.8,0,0,0-.58-2.52c-.33-.91-.67-1.59-.94-2.21l1.93-1.08L239,490.15Z"/><path class="cls-2" d="M221.47,541.63l-12-15.74,1.67-1.35a14.42,14.42,0,0,1,1.64,1.93c.74.72,1.3,1.28,1.63,1.57a4.27,4.27,0,0,0,1.82.47,5.12,5.12,0,0,0,1.8-.8l25.39-19.36a4.13,4.13,0,0,0,1.28-1.38,2.9,2.9,0,0,0,0-1.93,17.22,17.22,0,0,0-.89-2.33,20.15,20.15,0,0,0-1.07-1.93l1.74-1.38,12,15.74-1.8,1.36a12.41,12.41,0,0,0-1.53-1.63,8.67,8.67,0,0,0-1.94-1.58,2.3,2.3,0,0,0-1.93-.51,4.18,4.18,0,0,0-1.75.8l-25.31,19.36a3.5,3.5,0,0,0-1.2,1.39,3.55,3.55,0,0,0-.09,2c.15.35.5,1.14.89,1.93a10.19,10.19,0,0,0,1.24,2.21Z"/><path class="cls-2" d="M297.26,557.26a23.92,23.92,0,0,0-2.21-1.51,10.67,10.67,0,0,0-2.61-1,4.75,4.75,0,0,0-3.2,1,39.29,39.29,0,0,0-4.08,3.87L262.83,583,260.89,581l5.52-44.54-15.68,16.4a29.49,29.49,0,0,0-3.72,4.63,6,6,0,0,0-.89,3.1,6.47,6.47,0,0,0,1.24,3,15.44,15.44,0,0,0,1.68,2.48l-1.47,1.59-13.15-12.53,1.59-1.53a10.17,10.17,0,0,0,2.42,1.47,7.81,7.81,0,0,0,2.48,1.07,4.21,4.21,0,0,0,2.94-1,28.29,28.29,0,0,0,4.4-4.07l15.12-15.74a11.68,11.68,0,0,0,1.57-2.36,5.58,5.58,0,0,0,.52-2.48,9,9,0,0,0-1-3.39,13.36,13.36,0,0,0-1.69-2.81l1.45-1.58,9.16,8.75-5.19,41.38,14.43-15.11a36.14,36.14,0,0,0,3.74-4.62,6.66,6.66,0,0,0,.89-3,16.55,16.55,0,0,0-1.36-2.77,22.94,22.94,0,0,0-1.7-2.54l1.49-1.59,13,12.36Z"/><path class="cls-2" d="M322.16,602.61c-.44-.23-1.12-.52-1.8-.91a12,12,0,0,0-1.93-.68,3.7,3.7,0,0,0-1.94.41,5.22,5.22,0,0,0-1.4,1.45l-1.93,2.83c-1.36,2.09-2.38,3.45-2.77,4.18a15.13,15.13,0,0,0-1.09,1.8,40.32,40.32,0,0,1-15.66-5.81,23.19,23.19,0,0,1-5.81-5.92,19.56,19.56,0,0,1-3.16-7.49,21.32,21.32,0,0,1,.18-8.64,22.21,22.21,0,0,1,3.87-8.81,24,24,0,0,1,6.6-6.82,22.93,22.93,0,0,1,8.06-3.54,20.16,20.16,0,0,1,8.54,0,23.54,23.54,0,0,1,13.13,7.88,33,33,0,0,1,2.83,4.47l2.13-1.08,2.09,1.47-8.41,12.92-1.93-1.48a36,36,0,0,0,1.35-5,15.57,15.57,0,0,0,.47-5.13,11,11,0,0,0-1.36-4.63,11.86,11.86,0,0,0-3.62-3.87,13.52,13.52,0,0,0-5.69-2.21,12.74,12.74,0,0,0-6.05.79,16,16,0,0,0-6,3.78,33.19,33.19,0,0,0-5.81,6.43,30.88,30.88,0,0,0-3.56,7.16,21.09,21.09,0,0,0-1.2,7,14.72,14.72,0,0,0,1.59,6.34,15.22,15.22,0,0,0,4.53,4.95,11.77,11.77,0,0,0,4.61,1.94,8.86,8.86,0,0,0,3.62.33,16.88,16.88,0,0,0,2-2.54c.62-.91,1.2-1.7,1.59-2.26l1.3-2a5,5,0,0,0,1-2.07,2.15,2.15,0,0,0-.35-2.11,12,12,0,0,0-1.83-2.13,15.51,15.51,0,0,0-2.21-1.68l1.24-2,16.09,10.88Z"/><path class="cls-2" d="M432.73,609.8a11.42,11.42,0,0,0-2.46.36,9.38,9.38,0,0,0-2.77,1,4.34,4.34,0,0,0-1.41,3,30.85,30.85,0,0,0-.45,5.43v19.19a12.47,12.47,0,0,1-1.53,6.29,14.14,14.14,0,0,1-4,4.53,15.17,15.17,0,0,1-5.19,2.36,17.25,17.25,0,0,1-5.19.8,21.08,21.08,0,0,1-7.05-1.09,16.32,16.32,0,0,1-5.25-2.8,10.62,10.62,0,0,1-3-4.07,9.81,9.81,0,0,1-1.12-4.75V614.06a4.43,4.43,0,0,0-.35-1.94,2.83,2.83,0,0,0-1.45-1.3,5.1,5.1,0,0,0-1.94-.77,10.54,10.54,0,0,0-1.94-.27v-2.27h18.28v2.27a10.91,10.91,0,0,0-2.13.21,14.4,14.4,0,0,0-1.93.5,2,2,0,0,0-1.4,1.18,5.1,5.1,0,0,0-.38,2V638a16.85,16.85,0,0,0,.38,3.68,11.34,11.34,0,0,0,1.53,3.66,8.44,8.44,0,0,0,3.33,2.71,12,12,0,0,0,5.7,1.18,13.38,13.38,0,0,0,5.81-1.18,8.74,8.74,0,0,0,3.62-2.77,13,13,0,0,0,1.93-3.54,15.79,15.79,0,0,0,.53-3.68V620a28.56,28.56,0,0,0-.53-5.69,6,6,0,0,0-1.39-2.89,12.24,12.24,0,0,0-3-1.24,23.71,23.71,0,0,0-2.91-.42v-2.27h18Z"/><path class="cls-2" d="M483.91,587.45A18.67,18.67,0,0,0,481.7,589a10.74,10.74,0,0,0-1.93,1.94,3.83,3.83,0,0,0-.12,3.21,26.17,26.17,0,0,0,1.8,5.31L494.37,629l-2.54,1.18L453.1,607.8l9.08,20.82a20.53,20.53,0,0,0,2.77,5.13,4.89,4.89,0,0,0,2.46,2.09,6.28,6.28,0,0,0,3.22,0,14,14,0,0,0,3-.58l.89,2-16.81,7.36-.89-2.11a11.89,11.89,0,0,0,2.42-1.74,9.23,9.23,0,0,0,1.84-1.8,4.38,4.38,0,0,0,.31-3.1,39.58,39.58,0,0,0-2-5.81l-8.7-19.87a9.57,9.57,0,0,0-1.57-2.42,6,6,0,0,0-2.14-1.47,10.23,10.23,0,0,0-3.39-.39,10.62,10.62,0,0,0-3.2.62l-.87-2.09,11.5-5,36.12,20.87-8.35-19.25a28.59,28.59,0,0,0-2.83-5.25,3.87,3.87,0,0,0-2.42-1.93,7.18,7.18,0,0,0-3.06,0,22,22,0,0,0-3,.73l-.85-2.09,16.42-7Z"/><path class="cls-2" d="M528,612.93l-17.81,8.68-1-1.94c.5-.23,1.18-.73,2.15-1.18a12.57,12.57,0,0,0,1.8-1.37,3.77,3.77,0,0,0,.83-1.73,3.08,3.08,0,0,0-.38-1.93l-14.1-28.66a3.54,3.54,0,0,0-1-1.57,3.38,3.38,0,0,0-2.07-.37,17.78,17.78,0,0,0-2.34.35,16.27,16.27,0,0,0-2.27.74l-1-1.94,17.88-8.7,1,1.94c-.59.29-1.2.74-1.94,1.18a8.45,8.45,0,0,0-1.94,1.53,2.67,2.67,0,0,0-.91,1.94,5.55,5.55,0,0,0,.47,1.74l14,28.66a2.84,2.84,0,0,0,1.26,1.41,2.42,2.42,0,0,0,1.93.45,7.17,7.17,0,0,0,2.15-.45,24.24,24.24,0,0,0,2.38-.73Z"/><path class="cls-2" d="M549.63,543.71c-.4.46-.89,1-1.37,1.58a7.41,7.41,0,0,0-.89,1.94,4.07,4.07,0,0,0-.27,2.31,26.48,26.48,0,0,0,.5,2.63q1.51,5.26,4.72,15.92c2.27,7.16,4.54,14.62,6.9,22.4l-1.94,1.57c-7.34-4.34-14.39-8.52-21.14-12.68s-11.47-6.78-13.89-8.25a9.85,9.85,0,0,0-1.93-.74,12.27,12.27,0,0,0-2.1,0,8.7,8.7,0,0,0-1.93.56c-.6.31-1.18.64-1.69.85l-1.41-1.68,14.23-11.33,1.45,1.69a27.8,27.8,0,0,0-2.82,2.82c-.68.84-.8,1.46-.45,1.94a1.44,1.44,0,0,0,.56.56,5.4,5.4,0,0,0,.68.5c1.8,1.13,4.84,2.83,9.08,5.37s10.21,6.14,18,10.71c-1.22-3.88-2.57-8.64-4.2-14s-2.88-9-3.56-11a19.59,19.59,0,0,0-1.47-3.72c-.39-.68-.74-1.16-.95-1.57a1.35,1.35,0,0,0-1.3-.52,4.3,4.3,0,0,0-1.8.4,20.19,20.19,0,0,0-2,1c-.57.35-1.13.68-1.69,1.08l-1.47-1.76,12.84-10.18Z"/><path class="cls-2" d="M598.88,529.4l9.41,8.9-23.47,28.1-1.67-1.35c.37-.53.82-1.24,1.45-2.1a6.59,6.59,0,0,0,.92-1.93,2.86,2.86,0,0,0,0-1.69,4,4,0,0,0-1.26-1.53L560,537.45a3.42,3.42,0,0,0-1.64-.83,2.67,2.67,0,0,0-1.94.21,14.4,14.4,0,0,0-1.93,1.24c-.8.62-1.38,1.14-1.82,1.53L551,538.3,572.81,512l8.12,6.81-1.46,1.8a12.68,12.68,0,0,0-5.53-1.12,7,7,0,0,0-4.79,1.12c-.52.47-1,1-1.64,1.59s-1.24,1.47-2,2.31l-4.28,5.36,13.33,11.17,3.27-3.77a14.89,14.89,0,0,0,1.94-2.95,4.73,4.73,0,0,0,0-2.42,6.92,6.92,0,0,0-1.15-2.53c-.58-.86-1.12-1.65-1.68-2.33l1.45-1.74,13.21,11.06-1.42,1.68a23.57,23.57,0,0,0-2.86-1.39,8.3,8.3,0,0,0-2.62-.76,4.14,4.14,0,0,0-2.57.76,7,7,0,0,0-2.36,2.3l-3.3,3.72,10.27,8.46a9.9,9.9,0,0,0,2.55,1.8,3.31,3.31,0,0,0,2.07.35,6.48,6.48,0,0,0,2.06-1.24L596,549c.35-.5,1-1.06,1.65-1.93a10,10,0,0,0,1.74-2.21,13.78,13.78,0,0,0,1.26-2.25,2.7,2.7,0,0,0,.37-1.8,14.57,14.57,0,0,0-1.51-5.32,42.32,42.32,0,0,0-2.1-4.34Z"/><path class="cls-2" d="M635.44,488.33l-5.64,10.26c-4.92.44-9.22.85-12.82,1.35s-7.43.91-11.4,1.57l-2.19,3.87,12.24,6.67a6,6,0,0,0,1.8.62,2.73,2.73,0,0,0,1.93-.66,10.53,10.53,0,0,0,1.3-1.61,10.37,10.37,0,0,0,1.32-1.94l1.93,1.07L615,526l-1.94-1.07c.23-.44.47-1.12.85-2a6,6,0,0,0,.56-1.8,2.71,2.71,0,0,0-.4-1.76,5.61,5.61,0,0,0-1.45-1.34l-28.1-15.24a11.37,11.37,0,0,0-1.8-.56,2.22,2.22,0,0,0-1.8.56c-.45.45-.91,1-1.42,1.65A6.22,6.22,0,0,0,578.2,506l-1.94-1,9.68-18a17.71,17.71,0,0,1,2.94-4.23,15.12,15.12,0,0,1,3.88-3.15,9,9,0,0,1,4.33-1.14,9.14,9.14,0,0,1,4.73,1.29,13.42,13.42,0,0,1,3.62,2.87,9,9,0,0,1,1.94,3.62,15.08,15.08,0,0,1,.44,4.07,33,33,0,0,1-.68,4.51c3.61-.51,6.69-1,9.05-1.24s5.28-.79,8.79-1.24a20.36,20.36,0,0,0,3.54-.79,11.91,11.91,0,0,0,2.31-1.3,9.88,9.88,0,0,0,1.57-1.53,16.12,16.12,0,0,0,1.14-1.57ZM598.76,487a8.58,8.58,0,0,0-6.72-1,8.92,8.92,0,0,0-5.07,4.63l-2.6,4.69,16.69,8.9,1.94-3.56a10,10,0,0,0,1-7.55,10.21,10.21,0,0,0-5.27-6.1Z"/><path class="cls-2" d="M624.07,450.7a9.76,9.76,0,0,1,3.87-1.12,12,12,0,0,1,4.34.44,11.74,11.74,0,0,1,8.23,6.55,15.66,15.66,0,0,1,1,11.35,21.86,21.86,0,0,1-2.31,5.46,19,19,0,0,1-3.48,4.35l1.93,1.94-.6,2.48-14.67-3.45.65-2.42a27.25,27.25,0,0,0,5.33-.56,16.61,16.61,0,0,0,4.72-1.47,15,15,0,0,0,3.78-2.93,10.85,10.85,0,0,0,2.3-4.64,11.31,11.31,0,0,0,.43-3.7,5.93,5.93,0,0,0-.91-2.89,7.65,7.65,0,0,0-1.94-2.15,16.33,16.33,0,0,0-3-1.29,8.79,8.79,0,0,0-9.6,3.71,50.14,50.14,0,0,0-2.94,4.07,25.78,25.78,0,0,1-2.93,3.87,14.29,14.29,0,0,1-5.69,4.4,11.33,11.33,0,0,1-7.34.27,11.69,11.69,0,0,1-4.32-2.25,11.22,11.22,0,0,1-3-3.87,12.07,12.07,0,0,1-1.39-4.69,14.79,14.79,0,0,1,.36-5.22,15.87,15.87,0,0,1,2.29-5,16.15,16.15,0,0,1,3.25-3.6l-1.8-1.94.56-2.49,14.27,3.5-.62,2.48a46.29,46.29,0,0,0-5,.23,16.85,16.85,0,0,0-4.59,1.07,10.53,10.53,0,0,0-3.6,2.47,10.32,10.32,0,0,0-2.27,4.25,8,8,0,0,0,.56,5.36,6.64,6.64,0,0,0,3.88,3.19,7.83,7.83,0,0,0,5-.11,9.37,9.37,0,0,0,3.88-2.93c1.08-1.29,2-2.59,2.94-3.87s1.8-2.5,2.69-3.68a29.2,29.2,0,0,1,2.67-3A13.81,13.81,0,0,1,624.07,450.7Z"/><path class="cls-2" d="M650.25,421.48l-2.77,19.64-2.19-.3c0-.67.14-1.39.18-2.47a9.09,9.09,0,0,0,0-2.33,4.39,4.39,0,0,0-.93-1.57,3.34,3.34,0,0,0-1.94-.73L611,429.5h-1.8a2.79,2.79,0,0,0-1.47,1.53,10.29,10.29,0,0,0-1,2.18,11,11,0,0,0-.8,2.27l-2.15-.29,2.72-19.64,2.13.3v2.24a14.22,14.22,0,0,0,.15,2.44,2.81,2.81,0,0,0,1,1.69,3.13,3.13,0,0,0,1.78.56l31.62,4.39A3.83,3.83,0,0,0,645,427a2.62,2.62,0,0,0,1.47-1.47,8.66,8.66,0,0,0,.87-1.94,11.79,11.79,0,0,0,.66-2.48Z"/><path class="cls-2" d="M622.31,369.25l-.12,2.08a14,14,0,0,0-2.65,1,30,30,0,0,0-3,1.45,12.19,12.19,0,0,0-2.48,2.05,3.65,3.65,0,0,0-1.36,2.07,20.76,20.76,0,0,1-.35,2.38,19.84,19.84,0,0,0-.09,2.71l-.1,1.94,35.26,1.24a3.76,3.76,0,0,0,1.84-.35c.68-.21,1-.77,1.36-1.45a10.59,10.59,0,0,0,.79-2.32c.21-1.19.39-2,.45-2.72H654l-.75,20.8-2.15-.11c0-.51-.1-1.51-.17-2.66a7,7,0,0,0-.39-2.48,3.14,3.14,0,0,0-1.07-1.56,4,4,0,0,0-1.93-.59l-35.5-1.35-.11,1.94v2.36a19.58,19.58,0,0,0,.11,2.65,3.91,3.91,0,0,0,1.13,2.25,13.83,13.83,0,0,0,2.42,2.09,21.29,21.29,0,0,0,2.86,1.82,14.33,14.33,0,0,0,2.62,1l-.12,2.2-12-.46,1.47-38.4Z"/><path class="cls-2" d="M613.13,321.14c0,.29.23.91.37,1.68a11.24,11.24,0,0,0,.77,1.65,14.88,14.88,0,0,0,1.07,1.68c.29.27,1,.85,2.09,1.65,2.3,1.74,4.57,3.21,6.87,4.68s5.33,3,8.81,5.17a11.79,11.79,0,0,0,3.22,1.59,8.51,8.51,0,0,0,3.5.5l8.41.12a4.06,4.06,0,0,0,1.93-.45,3.89,3.89,0,0,0,1.26-1.41,13.53,13.53,0,0,0,.66-2.36,19.84,19.84,0,0,0,.46-2.65h2.25l-.43,20.64-2.16-.12c0-.56-.12-1.33-.22-2.55a9.86,9.86,0,0,0-.39-2.41,3.15,3.15,0,0,0-1.2-1.58,3.94,3.94,0,0,0-1.93-.47l-10.73-.09c-.33-.12-.87.09-1.78.5s-1.94.79-2.94,1.35c-2.48,1.24-5.14,2.6-7.89,4s-5.24,2.77-7.3,3.88a13.59,13.59,0,0,0-4.31,3.48,5.46,5.46,0,0,0-.7,1.82,9.33,9.33,0,0,0-.39,1.8h-2.15l.29-18.84h2.25a23.94,23.94,0,0,0,.33,4.63c.23.79.6,1.24,1,1.3a1.46,1.46,0,0,0,.57-.18c.34-.09.79-.33,1.23-.5s1.26-.62,1.94-1a15.28,15.28,0,0,0,2.05-1.06c1.94-1,3.88-1.94,5.56-2.89s4.26-2.25,7.26-3.87c-5.21-3.29-9.21-5.81-12.22-7.63a17,17,0,0,0-5.13-2.6,1.27,1.27,0,0,0-1.18.53,3.59,3.59,0,0,0-.66,1.27,6.45,6.45,0,0,0-.4,1.94,7.36,7.36,0,0,1-.16,1.94h-2.34L611,321Z"/><path class="cls-2" d="M394.45,503.16a5.48,5.48,0,0,0-4.22,2,7.13,7.13,0,0,0-1.82,5.19,6.44,6.44,0,0,0,1.7,4.63,5.83,5.83,0,0,0,4.28,1.76,5.5,5.5,0,0,0,4.18-1.76,7.09,7.09,0,0,0,1.63-5,6.67,6.67,0,0,0-1.74-4.95A5.1,5.1,0,0,0,394.45,503.16Z"/><path class="cls-2" d="M422.26,503.16a4.63,4.63,0,0,0-4,2.21c-1.2,1.74-1.94,5.11-1.94,10.1s.56,8.06,1.69,9.69a5.13,5.13,0,0,0,4.29,2.49,5.08,5.08,0,0,0,4.23-2.49c1.14-1.63,1.76-4.79,1.76-9.69s-.62-8.19-1.76-9.81A5.41,5.41,0,0,0,422.26,503.16Z"/><path class="cls-2" d="M587.45,212.83H235.31c-.44,0-.32.62-.56.95-.35,45.25.18,91.84,0,135.9-.35,44.54,6.16,84.95,20.66,116.69,14.2,31.44,37.57,54.06,64.08,73.06,27,19.13,60.69,29.39,91.83,45.46,31-16.18,64.63-26.29,91.47-45.85,26.53-19.19,50.48-41.17,64.56-72.94s20.3-71.07,20.3-117C587.65,304.71,588,257.66,587.45,212.83ZM316,412.69c23.92-12.41,47.89-26.07,66.62-44.11a122.15,122.15,0,0,1-32.61,3.21c1.7-2.71,4.51-4.39,6.77-6.6,15.81-14.78,33.5-28.89,42.08-51.28A65.44,65.44,0,0,1,378,317.57,178.13,178.13,0,0,0,412,246h.89a177.47,177.47,0,0,0,34,71.55,61.4,61.4,0,0,1-20.59-3.87,27.91,27.91,0,0,0,3.55,9.37c7.63,14,19.87,25.17,31.27,35.88a156.88,156.88,0,0,1,13.56,12.86c-12.63,1.12-18.4.12-32.26-3.54,4.51,5.32,10.43,9.29,15.91,13.55,14.89,12.18,32.69,21.3,50.64,30.75,1.41.74,3.62,1.24,4.18,3.1a108.13,108.13,0,0,1-47.5-4.18c-19.63-6.76-38.24-7.17-52,5.71-15.36-12.37-30.52-12.53-55.05-6a121.35,121.35,0,0,1-47,4.51C312.13,413.75,314.51,413.48,316,412.69Zm54.53,117.44h-3.68V506.9a11.67,11.67,0,0,1-3.54,2.38,17.22,17.22,0,0,1-3.87,2v-3.45a27,27,0,0,0,5.34-3.6,14.45,14.45,0,0,0,3.27-3.87h2.48Zm32.59-6.43a11.17,11.17,0,0,1-3.7,5.13,9.89,9.89,0,0,1-5.8,1.81,8.11,8.11,0,0,1-5.72-1.94,8.39,8.39,0,0,1-2.73-5.48l3.53-.33a6.3,6.3,0,0,0,1.78,3.68,4.26,4.26,0,0,0,3.21,1.12,6,6,0,0,0,3-.79,7,7,0,0,0,2.06-2.09,11.87,11.87,0,0,0,1.33-3.45,16.37,16.37,0,0,0,.58-4.51V516a6.91,6.91,0,0,1-3,2.94,8,8,0,0,1-4.08,1.12,8.43,8.43,0,0,1-6.26-2.71,9.86,9.86,0,0,1-2.65-7.09,10.11,10.11,0,0,1,2.71-7.28,9.08,9.08,0,0,1,6.66-2.71,10.53,10.53,0,0,1,5.42,1.47,9.92,9.92,0,0,1,3.7,4.55,25,25,0,0,1,1.2,8.37,32.1,32.1,0,0,1-1.27,9Zm27.95.16a10,10,0,0,1-3.24,5,9,9,0,0,1-12.22-1.29c-1.93-2.42-3-6.49-3-12.07a27.44,27.44,0,0,1,1.12-8.54,9.53,9.53,0,0,1,3.26-4.9,7.79,7.79,0,0,1,5.42-1.8,9.59,9.59,0,0,1,4.22.89,7.86,7.86,0,0,1,3,2.77,15.75,15.75,0,0,1,1.82,4.46,29.91,29.91,0,0,1,.68,7.12,28,28,0,0,1-1.16,8.39Zm28.81,6.27H440.17a5.56,5.56,0,0,1,.46-2.48,12.75,12.75,0,0,1,2.48-4,38.55,38.55,0,0,1,4.75-4.55,41.12,41.12,0,0,0,6.58-6.34,7.27,7.27,0,0,0,1.76-4.39,4.64,4.64,0,0,0-1.64-3.6,5.52,5.52,0,0,0-4.05-1.59,5.81,5.81,0,0,0-4.24,1.64,6.15,6.15,0,0,0-1.57,4.34l-3.87-.33a9.49,9.49,0,0,1,2.94-6.43,9.73,9.73,0,0,1,6.8-2.15,9.33,9.33,0,0,1,6.77,2.31,8,8,0,0,1,2.54,5.92,8.93,8.93,0,0,1-.72,3.57,18.23,18.23,0,0,1-2.44,3.66,71.74,71.74,0,0,1-5.69,5.19c-2.21,1.8-3.6,3.15-4.24,3.73a14.71,14.71,0,0,0-1.51,2.08h14.6ZM429.75,447l1,7.9h-34.3l1-7.9H290.25l13.38-16.42a193.41,193.41,0,0,0,52-10.49c36.44-13.66,58.55,5.07,58.55,5.07,17.43-14.6,39.31-11.62,59.57-4.11,19.05,7,48.21,9.14,48.21,9.14L534.51,447Z"/><path class="cls-1" d="M92.73,756.75c.57.15.69-.52.28-.57,6.44,1.2,8.48,9.37,15.83,10.62,7,7.42-2.34,16.45-2.31,23.89,3.56,4.77,9.82-.22,13.24.59a6.78,6.78,0,0,1,3.17,2.28c3.86,6.07.41,15.28-6.59,16.43-1.46,1.23-2.63,2.74-4.93,3.18-7.45,9.8-18.2,16.27-26.48,25.32-3.2,5.91-8.55,9.68-12.37,15-5.63,2.26-5.67,11.67-6.6,18.41-.51,3.45-2.18,6.26.85,7.47,5.39-2.31,8.55-6.8,11.8-11.21,4.7-2.88,7.62-7.56,11.81-11,3.45-5.29,7.71-9.75,11.22-15,4.95-2.7,8.07-7.29,11.51-11.5,4.76-2.16,6-7.83,10.37-10.36,4.88.87,8.19-2.64,12.37-1.47,1.8.57,3.76,3.92,5.19,5.21,2.24,2,6,4.34,8.34,6.31,1.09,1.29,1.83,3.21,2.88,4.89,1.19,1.9,4,3.94,3.76,6.36a40.85,40.85,0,0,1-2.34,7.46c-.61,1.64-.81,5.49-1.42,7.21-.72,2.08-2.3,3.2-2.88,6.35-.35,2-.24,4.2-.87,6.33-1.1,3.79-1.33,8.33-1.69,14.1a66.32,66.32,0,0,1-1.76,10.07c-.91,4.16,0,7.37-.26,12.09-.08,1-.74,1.15-.89,2-.21,1.18.48,2.8.3,4-.15.9-.73,1.69-.87,2.6-.58,4.08.36,9.65.28,14.11,0,1.41-.14,3.55,0,4.6.37,2.36,1.68,5,2,9.2.28,3.25.73,8.13.28,9.79-.48,1.82-5,4.75-6.62,6.64a45,45,0,0,0-5.44,7.75c-6.74,0-6.74,6.74-12.68,7.49-3.29-4.42-4.3-12.57-11.52-12.09-3.88-3.51-6.89-7.89-12.94-9.18-4.6,5.12.3,13.54-1.46,20.12S85,980.56,85.55,987.86c-1.82,1.82-4.08,3.21-7.21,2.28-.28-5.73-6-9.55-6.31-15.22-1-1.89-3-2.8-4.61-4-1.79.21-3.67,1.9-5.79,1.72-2.48-.2-6.31-3.75-6.31-5.16,0-3.4,10.16-6.46,12.67-10.64,3.15-5.41,1.47-11.85-2-15.58-4-1.88-6.4,3.83-10.37,1.71-.81-4,4.12-4.94,4-8.59s-4.4-6.12-6-9.25c-1.15-.63-2.89.1-3.75-.26-2.83,3.11-5.21,6.66-8.06,9.79-3.86,1.25-8,0-10.91,2.87-2.51,2.35-4.37,6.81-6.06,10.93-1.25,3-2.73,6.16-2.59,9.25-.2,1-1.17,1.31-1.17,2.56.14,2.12,3.52,3.63,2.6,4.89a21.77,21.77,0,0,1,10.08,6.25c-.4,2.72,1.94,5.13,2.59,7.51,1.74,6.07-1.41,11.36-3.45,15.52-4.83,2.38-9.07,1.63-14.11,0-5.08-4.85-11.56-12-14.95-19-1.19-2.48-.16-6.22-.59-9.77-.16-1.47-.93-2.56-.56-4-3-7.26-3.26-18.11-1.72-26.75.3-1.78.91-3.93,2.56-4.88,1.1.26,1.05,1.61,2,2-.32,2,1,3.68,1.74,5.48A12.41,12.41,0,0,0,10.11,945c7.54-4.11,10.59-12.07,14.37-19.27,5.89-4,7.94-11.32,13.52-15.59a21,21,0,0,1,3.73-2.29,6.35,6.35,0,0,0,2.89-2.58c.36-4.2-1.9-6-.29-9.79,3.49-3.35,10.25-1.87,12.36-7.49-1.32-4.88.36-11.58-4.89-12.65-1.45-.32-2.48.79-3.71.85-3.87.22-5.88-2.53-8.66-3.73-4.08-1.78-7.81-.21-12.37-.57a23.39,23.39,0,0,1-2.87-5.77c1.21-2.61,2.54-5.09,4.88-6.62.9-.14,1.14.42,1.75.58,2.51-1.31,3.2-4.44,6.61-4.88,2.38-4.34,6.62-6.83,8.9-11.27,5.8-3.28,10.47-8.67,16.41-11.76,2.06-1.09,4.64-1.22,5.49-3.75-.3-2.78.56-4.47.56-7.21,0-1.71.93-3.15,1.16-4.9.48-3.94-.38-9-.59-12.92-.32-6.93,1.49-14.23,1.45-21.33.85-.77,1.21-2,2-2.88.61-7.2,1.92-14.74.57-22.43-.65-3.79-2.82-6.94-2-10.66.61-2.64,2.63-4.32,4.31-6.36,7.33-.85,13.17.25,15.55,5.49C89.76,749.11,91.5,754.2,92.73,756.75ZM112,948.16c.78-.62,1.25-1.59,2-2.3,0-6.62-.24-15.28,0-21,.12-1.84-.29-3.88-.27-5.73.1-6.12,1.6-12.22,1.44-18.19-.11-3.93-.85-7.7,0-11.48.8-3.53,2.13-6.42,2-10.09-.08-2.22-.92-4.28-.84-6.32.12-5.09,1.94-9.59,2.58-15,.08-.74-.56-1.34-.58-2-.06-4.1,1.71-8.7.58-12.94-.41-.32-2.6-3.72-4-2.34-3.63,3.53-9.12,9.5-13,14.1-2,2.4-4.48,5.35-5.16,8.36-1.17,5.15,4.6,5.15,6.62,8.07s1.25,4.35,1.41,8.36c-1.84.62-2.36,3.13-4,4.88-.69.75-1.86,1.19-2.57,2-2.89,3.42-3.07,8.28-5.19,12.68-1.93,4-5.73,8.33-6,12.07-.42,4.82,3.9,7.93,4,12.69-.69,2-3.11,3.43-2.3,6,1.49,1.27,3.87,1.69,6.34,2,5,3.44,0,11.63.84,15.81A60.71,60.71,0,0,0,112,948.16Zm-34.55-68.5c0,3.57-2.71,5.21-2.89,7.75-1.51.75-3.41,1.31-4.3,2.6-.44.61-.12,1.88-.61,2.89s-1.17.91-1.41,1.7c-.79,2.44-.48,5.58-.85,8.63,3.88,4.48-.44,10.84.85,17.58,1.37,1.26,3.47,4.1,6.06,3.76,4.68-.69,2-11.29,4-14.7,1.11-1.87,2.61-3.27,3.17-6.06.43-2.19-.16-5.16.57-7.46.38-1.21,1.41-2.22,1.74-3.45,1-4.06.8-8.54,2-12.37-1.36-2.53-6.35-3.64-8.3-.87Z"/><path class="cls-1" d="M772.05,759.6c-1.6,5.22.57,11.32-3.17,14.38-.83.71-1.8.69-2.59,1.19-1.47,1-2.11,2.59-3.73,3.45-2.94.91-6-.26-8.36.56s-3,3.7-3.75,6.33c-3.79,4.42-5.93,8.69-7.47,15.27,3.47,4.81,12.36,6.5,10.64,14.68-7.17,3-9.89,11-7.47,19.55.68,2.42,3.51,6.69,6,7.21.82.16,2.3-.36,3.47-.28,1.73.14,5.77,2.22,7.75,2s3-1.81,4.32-2.84c0-7.22,9.24-17.76-3.15-17.56-3-2.38-2.38-8.84-2.59-12.39-1.37-1.09-1.39-2.77-2.31-4-1.68-2.28-4.75-2.77-7.21-4.35,1.9-6.65,9.16-4,15.56-4.86,4.14,3.59,4.82,9.85,4.9,15.52.29.77,1.34.79,1.7,1.45,5.93-4.52,7.24-13.68,10.66-20.73.06-4.09,2.18-7.1,3.16-11,.29-1.13,0-2.35.29-3.41.75-2.59,2.66-5.11,2.6-7.51s-2.1-4.4-3.19-6.62c1.13-6.62,9.55-6,13.56-9.77,2,1,4.59,1.51,5.73,3.45-.12,1.33-.9,2-1.14,3.16.54,4.25,5.47,4.71,5.18,8.65-.12,1.72-2.52,2.88-3.73,4.62-2.62,3.63-2,9-5.47,11.2-1.74,5.83-6.3,10.74-9.21,16.71-.72,1.46-.76,3-1.45,4.62-1.21,2.67-4,4.32-5.75,6.86-4,6-5.43,13.18-8.64,19.6-.32,3.84-2.34,6.54-1.15,10.06,2,2.1,4.56-.65,7.49-.29,4-3.31,4.44-11.4,10.64-12.35.89-.14,2,.08,3.16,0,1.32-.12,2.49-.91,3.17-.89,1.17.08,2,1,3.17,1.45,2.36.91,5.43,1.28,6.64,3.46.73,2.64-1.47,3.51-2.6,5.19-.85,1.2-1,2.78-1.72,4-1.21,1.94-3.23,3.59-4.62,5.73a112,112,0,0,0-8,13.52c-5,4-8.6,10.78-15.83,11.53-6.34,4.39-13.38,8.15-16.13,16.12,1.28,3.48,4.31,3.76,8.06,4.91,4.24,1.27,7.75,3.55,6.91,9.2,4.19.69,6.49-.89,10.37-.28,8.36,1.25,5.93,12.67,1.15,16.39-.44.36-.59,1.69-.87,2-1.5,1.69-3.71,3.43-4.6,3.45s-1.9-1.25-2.88-1.48c-.65-.12-.83.57-1.72.59-.69,0-1.61-.61-2-.59-4.44.23-8.47,3.41-12.39,2-1.74,2.38-3.92,6.26-4.32,9.53-.57,4.68,2.31,4.64,4,7.47.41.64.21,1.59.59,2.28,1.95,4,6.82,6.84,7.77,10.11v2.88c3.39,2.22,3.15,6.86,5.19,10.94,1.94,3.9,7.12,6.92,6,13.5-1.13,6.75-8.87,8-13.24,12.11-3.27.19-6.6.25-9.2-.86-2.41-3.92-6.15-7.37-10.94-7.49-2.6-.06-5.29,2.41-8.64,2-.52-.06-.88-.85-1.45-.91s-1.46.67-2,.61c-5.6-.41-10.07-1-14.67-4,.28-1.74-.69-2.22-.89-3.45,5.65-4.56,15.54-1.61,22.16-2.58,3.59-2.9,9.18-2.3,13.24-4.32,1.37-5.71-2.78-8.34-4.3-12.11,0-1.25.38-1.17,0-2-3.7-9.25,4.3-21.26-3.75-27.37-7.81,5.35-15.51,13.26-19.56,23.33a61.51,61.51,0,0,0-18.45,17c-1.33,1.83-2.7,6-4.59,7.72s-7.4,4.17-9.78,4.62-4.72-1.06-7.2.27c-2.86-.75-7.07-1.6-11.25-2.28-3.79-.63-9.3-2.93-8.92-6.9.12-1.23,3-6,4.32-6.91,2.71-1.77,7.41-1.49,10.66-2.6,1.38-.44,2.1-1.59,3.47-1.43a127.26,127.26,0,0,1,13.8-10.92c.67-1.29,1.82-2.06,2.31-3.45,2.26-2.16,5.19-3.7,6.62-6.64a31.49,31.49,0,0,1,6.62-4.28c6.64-3.21,12-9.13,18.71-13,.71.56,1.75-.36,2.6-.55a25.49,25.49,0,0,0,8.34-15.28c6.55-4.25.38-9.8-3.46-13.21,1.52-2.18,5.86-3.19,8.36-5.21,3.57-2.84,6-7.39,8.93-11.5,2.05-2.93,9.2-12.66,7.77-17.85-1.64-5.87-12.1-1-12.66,3.46-6.06,2.09-9,7.34-14.13,10.37-7.47,6.54-14.35,13.66-22.44,19.58-.65.56-.81,1.67-1.44,2.3-5,3.29-10.92,0-17.3,1.69-2.07-1.53-4.83-2.4-5.72-5.14,4.51-3.68,8.43-8.1,14.68-8.64,2.67-.85,4.37-3.4,6.61-4.91.67-.42,1.73-.42,2.6-.86a29.69,29.69,0,0,1,3.43-1.72c3-1.15,5.07-3.63,8.08-5.47,3.26-2,7.32-3.19,10.37-5.19,1.58-1.07,3-3.65,4.88-4.88,1.58-1.07,3.71-1.19,5.75-2,4-1.63,10-5.09,10.64-8.07,1.23-5.1-3.49-7.81-6.33-10.35-3.43.22-5.82,4-9.19,4-1.7,0-2-1.09-3.45-1.75-1.71-.73-4.2-.35-4.88-2.28-1.42,1.08-2.27,0-3.47-.57-3.56,3.39-3.64,8.62-6.34,12.67-3.15,1.68-6.93,8-10.36,3.44,3.43-5,6.51-10.42,9.79-15.54-1.57-3.7-3.11-13.25-8.07-9,1.79,6.65-1.57,11.42-5.75,14.4-1.28-.12-2.12-1.31-3.46-1.13-4.8.63-2.2,7.91-2.6,11.23-.22,1.92-4.38,9.22-6.6,10.06-1,.43-2.9,0-4.32.31-2-1.13-4.48-2.8-7.2-2.3-1.4-2.57-3.19-4.14-2.61-6.91.45-1.87,3-2.94,3.2-4.6.11-1.33-.86-2.84-2-4.38a42,42,0,0,1-4.59-7.72c1.5-2.83,4.79-3.86,4.89-8.08,6.86.22,10.37,7.29,15.54,10.94,2.54-.42,2.26-3.45,2.86-5.45.73-2.28,2.14-3.27.87-6.08-.38-.86-1.47-1.41-2-2.3s-.54-2.15-1.15-3.14c-.77-1.38-2-1.68-2-3.74-2.78-1-5.1-5.89-8-6.92-1.86-.59-3.23.64-5.18-.3,1.75-2.91,3.55-5.81,5.18-8.92,5.23-2.57,7,2.56,10.66,3.16,1.29-1.4.93-2.82,1.13-5.46.93-.55,1.15-1.88,2-2.56,3.12-2.57,7.46-1,11.52-1.76,5.51-1,9.34-3.6,13.52-6,1.06-1.65,1.56-3.79,2.59-5.47.3-9,5.35-16.22,5.18-25.35-.08-4.45-2.58-10.63,0-14.67.09-1-.22-2.34.29-2.86,2.78-2.83,5.16-6,9.2-7.51,2.66,2.06,6.14,3.29,8.07,6,1.33.33,1.78,1.49,3.47,1.46a7.34,7.34,0,0,0,6,3.71C769,756.75,770.79,757.9,772.05,759.6Zm-55.26,68.53c2.17-3.77,6.82-6.35,6.05-12.07-1.88-1.85-4.2-1.49-5.77-3.49-4.08-.6-9.13-1-9.51,2.58-.07.71,2.12,6.2,2.6,7s1.82,1.25,2.3,2c.93,1.45.47,3.37,1.74,4C715.39,828.1,715.79,828.64,716.79,828.13Zm14.1-14.72c-3.65,3-5.27,7.57-7.77,11.79-1.17,2-3.15,4.68-2.86,6,.64,3.55,4.6,1.25,7.75.89,3.47-.44,6-.28,7.2-2.6-1.09-5.21,1.88-10.45-.86-15.26A31.62,31.62,0,0,0,730.89,813.41Z"/><path class="cls-1" d="M546.38,824.94c2-.34,4.14,1.38,6,1.74,2.49.51,4,.06,6.61,1.17,4.31,1.79,6.87,4.6,3.19,9.17-1.61,2-4.67,2.68-6,4.36-4.84.8-10.94,2.88-14.41,6-7.35,2.46-14.21,6.48-20.71,8.9a5,5,0,0,0-2.3-.28c-1.33.4-1.9,1.59-3.47,1.73-4,5.7-3.15,14.68-5.75,21.31.54,1.76.47,4.91-.59,6-1,18-9,33-20.14,42.61a2,2,0,0,1-1.43.3c-9.47,9.55-19.48,18.3-33.41,22.72-.56.2-.64.87-1.15,1.15-4.54.71-9.13,4.2-13.5,4.32-1.85.06-4-.28-6.07-.28-1.8,0-4,1-5.17-.57-.06-1.35,1.54-1.23,2.3-1.73s1.32-1.29,2-1.74c4.71-2.86,10.07-5,14.67-8.05,6-3.91,11.14-8.9,17.28-12.39,12.92-12.17,24.78-27,30.8-44.32.18-5,4.16-13.71-.87-17-5.55,1.43-7.49,6.52-12.93,8.06-.64,1.59-2,2.42-2.59,4-7.49,4.38-12.69,11-18.69,16.81-3.67-.38-5-3.1-6.9-5.16-7-3.19-11.34-9-16.41-14.11,1.15-3.35,5.39-3.66,7.2-6.36,2.75.61,5.88.93,8.34,0,1.35-.5,2.2-1.89,3.45-2.56,1.46-.79,3.31-.87,4.88-1.45,1.09-.41,1.82-1.34,2.87-1.72,1.82-.66,4.12-.89,6.36-1.74,4-1.55,7.37-4.36,11.53-4.92,5.56-.7,8.88-4.83,15.25-5.17,5.55-3.82.73-13.14,3.15-20.44-1.13-17.58,3.67-33.2-.56-48.34-1.5-1-2-3-2.59-4.9,2.75-5.35,6.34-10.6,13.52-10.64,4.12,3.11,9.37,7.44,15,10.07,1.17,3.64,5.85,5.39,3.73,10.07-1,2.34-4,3.84-5.73,6.36-2.83,4.12-2,8.74-3.47,13.78-1.62,1.72-1,5.27-1.74,8.36-.14.71-.92,1.41-1.13,2.32-1,4.46-.72,10.88-1.17,14.93-.24,2.35-1.29,5.13-.84,7,1,4,6.61,2.9,10.07,1.15,2.28-3.47,7.52-6,12.93-8.39C543.37,834.63,551.25,829.49,546.38,824.94Z"/><path class="cls-1" d="M290.2,774.59c2.91.88,7.11-.87,9.21-2.61.92.55,1.91-.26,2.86.59,3.75-1.7,12.05.69,15.86,3.19a12,12,0,0,1,3.44,4c.52,1.87-.69,3.41-.57,4.59.28,3.12,1.9,5,.85,8.08a6.28,6.28,0,0,1-3.15,3.13c-5.41,1.73-11.54-5.17-17.56-1.42a6.16,6.16,0,0,1-5.19-6.9c-1-3.57-9.42-4-9.79-7.48C285.9,777.25,288.71,776.32,290.2,774.59Z"/><path class="cls-1" d="M242.69,847.13c.81-3.66,8-7.25,12.39-9.23a19.79,19.79,0,0,1,4.6-1.11,15.45,15.45,0,0,1,4-2,119.18,119.18,0,0,1,37.18-21.38,25.57,25.57,0,0,0,3.71-1.74c.77-.4,1-1.15,1.74-1.71,2.94-2.1,7.14-3,10.35-4.62,1.55-.79,3.09-1.48,4.62-2.31,1.27-.68,2.18-2,3.43-2.86s2.91-1.17,4.06-2c2.28-1.71,3.94-4.48,6.32-6a44.41,44.41,0,0,1,5.49-2.6c1.53-.78,3.23-1.35,4.6-2,3.37,1.7,7.24,2.91,9.48,5.75.27,4.35-3.67,7.19-6.62,9.79-1.08,1-1.75,2.65-2.86,3.47a21.23,21.23,0,0,1-9.81,3.76c-3.11.49-6.09,2.57-10.06,1.7-2.31,2.2-5.6,2.36-8.06,4.07a46.74,46.74,0,0,0-5.2,4.85c-5,4.84-10.75,9.16-15.84,14.1-3.27.71-5.48,4.34-8.61,7.49-3.5,3.58-7.55,5.79-9.51,10.68-2.28,1.69-3.19,1.72-6.9,1.69-7.25,0-14.33,2.06-20.43-2-.87-.59-1-1.67-1.73-2.32C247.13,849,244.11,849.41,242.69,847.13Z"/><path class="cls-1" d="M347.2,844.52c.08,6.84-6.9,10.49-10.66,15.28-4.85,1.38-7.77,4.68-8.92,9.79,2.52,3.25,6-2.15,8.92,0,1.37,3.83.24,8.94-1.73,11.22-2-.23-2.19,1.43-3.15,2.3a2,2,0,0,1-1.46-.3c-2.42,3.52-7.79,4.12-10.37,7.49-5.17.44-12,2.5-14.67-1.72-1.6-9.27,5.22-11.56,7.48-17.84a10.44,10.44,0,0,0,5.49-7.23c1.46-2,5.61-5,5.46-8.64-.13-2.9-2.89-4.4-6.06-3.45-2.34.77-5.75,5-7.75,7.21a94,94,0,0,0-6.62,8c-1.29.76-3.33.73-3.75,2.33-2.47-.71-6.55.18-8.64-.86-2.89-3.47,2-5.57,4.88-7.81,1.13-.82,2.1-1.53,3.17-2.26,2.56-1.87,4.76-3.89,7.77-5.77,1.72-1.08,3.63-1.9,5.19-2.91s2.62-2.42,3.73-3.12c3.54-2.35,8.5-2.73,9.8-6.93,3.93-1.59,7.92-3.39,11.52-1.15,2.28,1.42,3.42,4,5.46,4.91C344,843.83,346.15,843.09,347.2,844.52Z"/><path class="cls-1" d="M266.59,872.72c2.82-3.09,6.86-7,13.24-5.15,7,2,12.83,14,13.23,21,.15,2.45-.76,7-1.73,8.34-.7,1-2.6,1.85-4,2.86-1.83,1.35-3.12,3.31-6.61,2.62-2.73-.55-11-7.83-11.82-11-.41-1.64.41-3.11.29-4.62C268.79,882,264.73,878,266.59,872.72Z"/><path class="cls-1" d="M604.81,926.26c-1.39,6-8.88,5.33-13.8,8.1-2.3,1.31-4.61,3.87-7.51,5.47-3.75,2-8.24,1.31-11.78,3.43-6.31.74-9-1.56-13.25-5.17-4.88-4.1-7.87-8-11.5-13.24-2.65-3.8-5.79-5.73-6.62-10.07-7.07-10.07-14.29-21.6-16.71-34.58-2.34-3.35-1.7-7.91-3.47-11.78,6.53-1.19,6.09,6.68,10.66,8.38,1.28,2.64,3.49,4.35,5.48,6.31v1.13c4.93,4.6,8.07,10.92,13.24,15.3-.24.79.4.71.28,1.39,6.18,5.46,13.63,9.61,20.17,14.7,4.92,0,7,3.49,10.91,4.9,7.21-1.33,12,2.22,19,2.58C601.26,924.47,603.4,925,604.81,926.26Z"/><path class="cls-1" d="M656.34,948.72c0-1.47,1.27-1.59,1.72-2.6.74-3.73-.27-8.27,2.88-10,.62-4.66,4.54-7.47,4.34-12.37-.24-5.31-3.39-10.56-4-15.57,2.26-3.12,6.18-7.1,10.64-4.57a29.59,29.59,0,0,1,2.6,2c3.68,2.87,8.26,8.82,10.94,11.53,2.1,7.41,1.69,13.32,2,20.45-2.28,8.67-8.5,14.32-17.82,13.52C664.75,954.48,660.44,950.06,656.34,948.72Z"/><path class="cls-1" d="M327.62,952.76c-1.19-7.61-.69-15.92-.28-23.33a43.94,43.94,0,0,1,.56-5.73c.24-1.42,1.22-2.3,1.17-3.76-.2-4.28-4-8.49-.61-12.63.25-.06.31-.32.61-.32,9.2,1.31,14.13,7.44,17.55,17.58,1.65,5,4.39,9.82,4.9,14.36.52,5.19-2.38,8.91-3.76,12.68-2.34,1-4.07,3.47-6.05,4.88-1,.71-2.87,1.88-4.61,1.76C333.55,957.89,331.46,953.13,327.62,952.76Z"/><path class="cls-1" d="M233.77,950.74a12.24,12.24,0,0,1,10.37-7.18c2.65-.28,5.55.2,8.64-1.45,2.13-2.37,4.37-2.23,7.18-3.18,4.16-1.32,6.83-3.51,9.49-5.74.81-.67,1.66-.35,2.61-.85,1.71-.91,3-2.71,5.18-2.91a2,2,0,0,0,1.15-1.71c3.9-.85,8.66-4.75,13.53-4.61.47-.41,1.33-.38,1.71-.86,6.34,2.36,8.72-7.47,6.06-12.66.44-1.29.76-2.76,0-3.75,1.57-3.39,3-7,7.18-7.75a6.93,6.93,0,0,0,2.32,1.45c6.7,7.24,5.31,19,5.19,31.06-.12,9.87,2.08,19.58,2,28.78-3.25,2.49-6.18,12.29-10.66,12.68-1.89.16-2.58-1.74-4-1.74a108,108,0,0,1-5.18-12.07c-5.73-5.11-8-13.68-14.68-17.86-2.94,3-6.09,5.81-7.2,10.64-1.68.9-2.46,2.74-4,3.73-3.38,8.34-11,14-15,20.75-1.86.08-3.74,2.32-6.34,2-1.27-.17-1.57-1.23-2.58-1.74-2.26-1.11-5.21-.85-6.9-2-2.09-1.38-2.59-6.3-2.87-8.62C236.27,959.79,236.66,954.31,233.77,950.74Zm56.43-21.86c-1.05.31-1.74,3.62-2.6,5.15-1,1.8-2.36,2.89-2.59,4.06-1.11,5.47,4.46,5.31,7.5,7.2,1.2.75,1.89,2.34,2.86,2.55,1.62.36,2.38-.43,3.75-.83,4-7.87,2.58-15.91-.3-23.9-4.94-.89-7.17,5.3-8.62,5.77Z"/></g></g></svg>